<!-- Generated by IcoMoon.io -->
<svg version="1.1" xmlns="http://www.w3.org/2000/svg" width="512" height="512" viewBox="0 0 512 512">
<g id="icomoon-ignore">
</g>
<path fill="#fff" d="M-0.003 0h512v512h-512v-512z"></path>
<path fill="#212842" d="M311.435 206.986c0-12.331 0.019-24.14-0.024-35.954 0-1.294 0.317-2.2 1.327-3.095 3.219-2.858 6.31-5.859 9.856-9.188v3.015c0 30.327 0 60.653 0 90.975 0 4.257 0.298 8.481 1.365 12.63 0.749 2.916 1.844 5.618 4.333 7.519 0.337 0.26 0.602 0.55 0.531 0.995-0.090 0.574-0.574 0.403-0.938 0.45-7.514 0.929-15.659-4.822-17.1-12.383-1.579 1.659-3.005 3.186-4.457 4.688-10.349 10.719-31.426 13.123-43.676 2.413-8.813-7.704-13.587-17.626-12.976-29.686 0.849-16.707 9.747-28.075 24.022-35.56 9.368-4.911 19.171-4.006 28.852-0.678 2.82 0.967 5.49 2.37 8.884 3.859zM310.161 219.079c-5.575-5.808-11.942-10.326-19.83-12.425-13.303-3.542-26.126 3.423-29.421 16.782-3.584 14.544-0.317 27.677 10.605 38.305 10.809 10.519 28.611 11.325 38.205-1.503 0.583-0.777 0.829-1.46 0.829-2.38-0.019-10.448 0.275-38.087-0.389-38.779z"></path>
<path fill="#212842" d="M263.421 303.341c8.334-2.674 14.431 0.957 19.608 6.788 6.253 7.040 10.975 15.166 15.853 23.173 3.93 6.452 8.097 12.733 14.313 17.294 0.512 0.375 1.062 0.697 1.607 1.029 0.517 0.313 1.257 0.337 1.479 1.46-3.347 0.384-6.428-0.702-9.491-1.427-10.122-2.389-16.265-9.628-21.485-17.972-2.882-4.613-5.187-9.577-8.562-13.885-3.181-4.063-6.647-7.756-11.596-9.714-4.76-1.887-9.96-0.678-13.35 3.11-0.607 0.673-0.73 1.361-0.711 2.18 0.246 11.733-0.554 23.481 0.517 35.2 0.185 2.010-0.199 2.835-2.46 2.65-2.953-0.242-5.94-0.099-8.912-0.038-1.081 0.024-1.517-0.151-1.408-1.418 0.934-10.832 0.455-21.693 0.488-32.541 0.071-23.168 0.033-46.336-0.010-69.504 0-1.494 0.365-2.499 1.569-3.452 3.319-2.631 6.514-5.418 10.221-8.534v74.42c2.944-2.096 5.12-4.717 7.6-6.993 4.67-4.286 9.197-8.723 13.862-13.018 9.69-8.922 21.115-12.193 34.077-10.301 0.294 0.043 0.574 0.166 1.057 0.313-1.607 2.3-2.967 4.556-4.632 6.556-1.683 2.024-4.257 2-6.632 2.138-7.69 0.46-15.284 1.337-22.267 4.916-3.921 2.005-7.187 4.992-10.733 7.562z"></path>
<path fill="#212842" d="M243.236 270.834c-5.76 9.766-12.71 18.024-23.974 21.205-5.803 1.64-11.79 1.612-17.28-1.294-6.879-3.646-9.458-9.894-9.482-17.365-0.048-14.080-0.071-28.155 0.048-42.236 0.019-2.18-0.573-2.75-2.636-2.56-2.058 0.19-4.148 0.042-6.756 0.042 6.983-8.585 13.715-16.863 20.902-25.695 0 4.499 0 8.372 0 12.245q0 5.054 5.111 5.054c8.012 0 16.024 0 24.524 0-2.389 2.811-4.476 5.276-6.58 7.722-0.726 0.844-1.74 0.668-2.692 0.668-6.186 0-12.374 0.057-18.555-0.038-1.526-0.024-1.834 0.422-1.834 1.882-0.010 9.567-0.119 19.133-0.204 28.696-0.052 6.111-0.014 12.221-0.199 18.327-0.317 10.529 7.798 12.928 14.308 11.776 7.875-1.394 13.748-6.135 18.958-11.837 1.565-1.712 2.892-3.636 4.319-5.471 0.464-0.592 0.716-1.498 2.029-1.128z"></path>
</svg>
