<!-- Generated by IcoMoon.io -->
<svg version="1.1" xmlns="http://www.w3.org/2000/svg" width="545" height="512" viewBox="0 0 545 512">
<g id="icomoon-ignore">
</g>
<path fill="#2a314a" d="M420.353 3.666c0.003 1.311 0.006 2.621 0.009 3.972 0.072 31.956 0.165 63.911 0.279 95.867 0.055 15.454 0.103 30.907 0.135 46.361 0.028 13.476 0.069 26.952 0.125 40.428 0.029 7.13 0.052 14.259 0.060 21.388 0.007 6.724 0.032 13.447 0.069 20.172 0.010 2.455 0.015 4.91 0.013 7.364-0.404 30.638-0.404 30.638 13.133 57.030 1.021 0.945 1.021 0.945 2.062 1.909 0 1.209 0 2.42 0 3.666-14.286 0.806-23.712-0.745-34.673-10.234-6.507-6.242-10.874-11-11.762-20.315-0.832 0.832-1.663 1.663-2.521 2.521-0.564 0.559-1.128 1.118-1.709 1.695-1.273 1.283-2.526 2.585-3.762 3.904-16.81 17.647-38.981 26.137-63.046 27.317-24.139 0-43.817-7.764-61.060-24.449-9.593-9.669-14.961-19.248-20.649-31.762-0.403 48.389-0.806 96.779-1.222 146.635 8.175-7.148 8.175-7.148 15.886-14.663 4.354-4.408 8.822-8.548 13.527-12.573 2.521-2.235 4.882-4.579 7.246-6.978 3.879-3.932 7.889-7.61 12.091-11.194 1.794-1.568 3.545-3.186 5.26-4.84 13.402-12.781 28.38-20.74 46.191-25.513 1.644-0.449 1.644-0.449 3.322-0.907 7.293-1.644 14.589-1.776 22.034-1.842 0.983-0.012 1.966-0.023 2.979-0.035 6.080 0.034 11.111 0.842 16.877 2.784-3.135 8.755-9.259 16.904-17.108 21.995-4.096 1.295-8.205 1.603-12.473 1.971-30.065 2.741-53.969 7.985-77.952 27.356 1.036-0.011 2.073-0.022 3.141-0.034 15.258 0.385 26.83 5.267 37.947 15.842 16.864 18.168 29.688 39.553 42.482 60.663 11.594 19.097 23.507 38.396 42.688 50.793 1.079 0.747 2.158 1.493 3.269 2.262 0 0.807 0 1.613 0 2.444-18.219 1.577-38.683-5.048-52.816-16.51-14.671-12.647-24.878-28.096-34.396-44.769-6.44-11.228-13.212-21.668-21.542-31.589-0.772-0.94-1.543-1.881-2.339-2.849-7.396-8.23-17.578-14.161-28.478-16.224-9.767-0.453-16.98 2.788-24.917 8.195-2.669 3.656-2.145 7.551-2.056 11.901 0.008 1.461 0.008 1.461 0.016 2.952 0.014 2.115 0.036 4.228 0.066 6.343 0.047 3.342 0.071 6.685 0.089 10.027 0.042 7.094 0.113 14.187 0.187 21.279 0.087 8.222 0.161 16.444 0.205 24.666 0.024 3.3 0.070 6.599 0.116 9.898 0.013 2.014 0.025 4.029 0.036 6.043 0.019 0.923 0.038 1.845 0.058 2.795 0.001 2.549 0.001 2.549-0.416 6.622-4.226 2.817-5.507 2.676-10.439 2.416-1.311-0.063-2.623-0.126-3.974-0.191-1.368-0.079-2.736-0.158-4.145-0.238-1.382-0.070-2.764-0.139-4.189-0.21-3.416-0.173-6.831-0.358-10.246-0.553-1.711-6.096-1.053-11.982-0.678-18.217 0.867-16.898 0.728-33.764 0.555-50.678-0.043-4.343-0.077-8.685-0.113-13.029-0.068-8.174-0.143-16.348-0.221-24.522-0.089-9.327-0.168-18.654-0.248-27.981-0.163-19.14-0.337-38.281-0.518-57.421-0.904 0.998-1.808 1.997-2.739 3.025-1.208 1.327-2.416 2.655-3.624 3.982-0.593 0.656-1.186 1.312-1.798 1.988-16.206 17.773-36.933 28.214-61.109 29.344-14.055-0.633-28.521-5.724-38.186-16.191-8.763-11.006-11.432-22.19-11.463-36.007-0.013-1.241-0.025-2.481-0.037-3.76-0.037-4.079-0.058-8.159-0.079-12.238-0.023-2.837-0.047-5.674-0.072-8.511-0.063-7.451-0.111-14.901-0.156-22.352-0.049-7.609-0.112-15.219-0.172-22.828-0.118-14.919-0.22-29.838-0.315-44.757-7.662 0-15.323 0-23.217 0 1.886-3.773 3.326-6.183 5.953-9.308 0.695-0.833 1.39-1.667 2.106-2.526 0.743-0.883 1.487-1.767 2.252-2.677 5.497-6.596 10.927-13.226 16.191-20.010 6.415-8.244 13.136-16.203 19.933-24.133 0.802-0.954 1.603-1.909 2.43-2.892 1.607-1.91 3.249-3.79 4.902-5.661 0.403 0 0.806 0 1.222 0 0.031 1.085 0.061 2.17 0.093 3.287 0.117 4.035 0.237 8.071 0.362 12.106 0.053 1.744 0.104 3.489 0.153 5.234 0.071 2.512 0.148 5.023 0.228 7.535 0.067 2.266 0.067 2.266 0.135 4.577 0.202 3.153 0.552 5.806 1.473 8.808 3.966 1.171 7.597 1.408 11.724 1.473 1.369 0.024 2.739 0.048 4.15 0.074 1.471 0.020 2.943 0.041 4.459 0.062 2.268 0.038 2.268 0.038 4.582 0.077 4.010 0.066 8.019 0.127 12.029 0.187 4.095 0.061 8.191 0.13 12.286 0.197 8.029 0.131 16.057 0.255 24.086 0.375-1.655 3.408-3.334 6.184-5.804 9.065-0.643 0.75-1.286 1.501-1.947 2.274-0.668 0.769-1.336 1.539-2.024 2.332-0.668 0.784-1.336 1.567-2.024 2.375-4.99 5.791-4.99 5.791-7.752 7.172-1.81 0.109-3.625 0.143-5.438 0.138-1.125 0-2.25 0-3.41-0-1.826-0.010-1.826-0.010-3.688-0.019-1.244-0.001-2.488-0.004-3.77-0.005-3.984-0.007-7.969-0.022-11.953-0.037-2.697-0.006-5.394-0.012-8.090-0.017-6.62-0.013-13.241-0.034-19.862-0.060-0.115 17.335-0.2 34.671-0.253 52.007-0.025 8.050-0.060 16.1-0.115 24.151-0.053 7.772-0.082 15.545-0.095 23.317-0.009 2.962-0.026 5.923-0.053 8.885-0.035 4.156-0.040 8.312-0.038 12.469-0.017 1.217-0.035 2.435-0.053 3.689 0.049 8.455 1.427 16.317 7.222 22.838 7.696 6.802 15.394 7.257 25.262 6.989 20.065-1.582 36.636-14.264 49.995-28.482 1.066-0.972 2.132-1.943 3.231-2.945 4.631-5.655 3.694-12.59 3.613-19.547 0.014-2.196 0.014-2.196 0.030-4.437 0.028-4.67 0.017-9.338-0.001-14.007-0.005-4.67-0-9.339 0.025-14.007 0.015-2.902 0.012-5.804-0.012-8.707 0.042-12.31 0.042-12.31 4.111-18.221 2.998-2.864 2.998-2.864 6.416-5.499 1.19-0.946 2.379-1.893 3.604-2.869 2.013-1.547 4.046-3.070 6.119-4.535 4.296-3.192 6.263-5.455 7.308-10.774 0.333-2.291 0.663-4.582 0.993-6.874 3.814-19.424 10.865-36.594 24.439-51.322 0.915-1.013 1.83-2.025 2.774-3.069 18.155-19.153 43.091-33.061 69.781-33.895 19.517 0.243 37.772 5.967 55.447 13.869 0.976 0.436 1.953 0.872 2.959 1.322 0.737 0.33 1.474 0.66 2.234 1.001-0.005-1.135-0.011-2.269-0.017-3.438-0.049-10.698-0.086-21.395-0.11-32.093-0.012-5.499-0.030-10.999-0.058-16.499-0.026-5.308-0.041-10.617-0.048-15.925-0.005-2.025-0.014-4.048-0.026-6.073-0.018-2.837-0.020-5.675-0.019-8.512-0.009-0.835-0.017-1.67-0.026-2.53 0.027-6.252 0.971-10.599 5.048-15.387 1.356-1.309 1.356-1.309 2.74-2.645 0.978-0.947 1.957-1.893 2.964-2.869 3.49-3.244 7.042-6.398 10.663-9.494 1.743-1.526 3.39-3.162 5.007-4.821 1.986-1.909 1.986-1.909 4.43-1.909zM274.94 142.969c-15.655 18.359-18.567 42.031-17.355 65.367 1.637 20.249 11.047 39.523 24.687 54.386 0.825 0.937 1.651 1.875 2.501 2.84 13.566 14.581 31.319 23.079 51.236 24.072 18.337-0.142 33.012-6.869 46.478-19.203 5.159-5.99 6.554-11.156 6.531-18.98 0.002-0.851 0.005-1.703 0.007-2.581 0.003-2.798-0.019-5.595-0.042-8.393-0.003-1.96-0.006-3.921-0.007-5.881-0.005-4.105-0.023-8.209-0.050-12.314-0.034-5.232-0.048-10.463-0.053-15.694-0.007-5.023-0.024-10.044-0.042-15.067-0.003-1.416-0.003-1.416-0.007-2.861 0.986-16.936 0.986-16.936-3.12-32.709-2.665-2.364-5.32-4.666-8.12-6.874-0.62-0.492-1.241-0.983-1.88-1.49-29.637-23.159-70.952-34.121-100.763-4.619z"></path>
<path fill="#737888" d="M234.616 244.392c1.209 0.605 1.209 0.605 2.444 1.222-0.403 50.002-0.806 100.005-1.222 151.523 5.738-5.021 11.185-9.813 16.496-15.198 1.046-1.057 2.092-2.114 3.169-3.203 0.768-0.783 1.537-1.565 2.33-2.373 0.807 0.403 1.613 0.807 2.444 1.222-5.645 5.646-11.291 11.291-17.108 17.108 0.403 0.807 0.806 1.613 1.222 2.444-2.016 1.209-4.032 2.42-6.11 3.666-1.209-0.807-2.419-1.613-3.666-2.444-0.451-2.705-0.451-2.705-0.441-6.139-0.005-1.299-0.010-2.598-0.016-3.936 0.013-1.431 0.026-2.862 0.040-4.336-0-1.502-0.001-3.004-0.001-4.552 0.002-4.125 0.020-8.25 0.046-12.375 0.023-4.308 0.025-8.618 0.030-12.926 0.012-8.162 0.042-16.324 0.078-24.486 0.041-9.291 0.061-18.582 0.079-27.873 0.038-19.115 0.103-38.229 0.185-57.344z"></path>
<path fill="#5c6174" d="M243.169 391.026c0.806 0.403 1.613 0.807 2.444 1.222-0.806 0.807-1.613 1.613-2.444 2.444 0.403 0.807 0.806 1.613 1.222 2.444-3.024 1.815-3.024 1.815-6.11 3.666 0-4.888 0-4.888 2.444-7.637 1.209-1.058 1.209-1.058 2.444-2.139z"></path>
<path fill="#6b7081" d="M215.065 222.396c0.806 0.403 1.613 0.806 2.444 1.222-3.629 3.629-7.258 7.258-10.998 10.998-0.403-0.806-0.806-1.613-1.222-2.444 3.258-3.258 6.517-6.517 9.775-9.775z"></path>
</svg>
