<!-- Generated by IcoMoon.io -->
<svg version="1.1" xmlns="http://www.w3.org/2000/svg" width="512" height="512" viewBox="0 0 512 512">
<g id="icomoon-ignore">
</g>
<path fill="#fff" d="M0 0h512v512h-512v-512z"></path>
<path fill="#212842" d="M186.643 266.728c-5.94 0.010-10.685-2.18-14.023-7.036-1.626-2.365-3.034-4.874-4.56-7.305-1.436-2.29-3.11-4.362-5.386-5.883-1.963-1.309-4.054-1.735-6.258-0.692-1.484 0.702-2.494 1.612-2.409 3.594 0.175 4.058 0.029 8.126 0.066 12.193 0.014 1.688 0.171 3.37 0.266 5.134h-6.163c-0.019-0.175-0.057-0.356-0.057-0.536 0.076-11.757 0.161-23.51 0.227-35.267 0.029-4.973 0.019-9.946-0.010-14.915 0-0.692 0.195-1.138 0.754-1.583 1.607-1.27 3.143-2.626 4.902-4.119v36.603c1.849-1.726 3.48-3.238 5.096-4.764 1.721-1.626 3.409-3.286 5.149-4.887 2.921-2.688 6.234-4.779 10.207-5.338 2.38-0.332 4.84-0.061 7.524-0.061-0.905 1.327-1.47 2.636-2.451 3.433-0.797 0.644-2.086 0.844-3.181 0.939-3.067 0.261-6.092 0.617-9.031 1.631-2.716 0.934-4.769 2.821-7.044 4.452 4.304-1.228 7.471 0.688 9.875 3.854 2.731 3.598 5.134 7.447 7.632 11.216 2.071 3.12 4.011 6.343 7.277 8.429 0.488 0.313 1.005 0.579 1.593 0.915z"></path>
<path fill="#212842" d="M209.351 222.502h-5.708c0-0.403 0-0.778 0-1.148 0-15.502 0.005-31.009-0.014-46.511 0-0.782 0.227-1.313 0.825-1.821 1.588-1.351 3.119-2.774 4.845-4.323v25.136l0.351 0.208c0.735-0.797 1.389-1.683 2.214-2.37 4.84-4.011 10.326-5.993 16.644-4.798 4.996 0.944 8.88 5.281 8.979 10.345 0.166 8.32 0.052 16.644 0.057 24.97 0 0.071-0.048 0.142-0.1 0.28h-5.528v-1.394c0-7.415 0.033-14.834-0.014-22.249-0.029-4.3-1.664-7.775-5.764-9.614-3.2-1.436-6.423-0.834-9.519 0.474-2.57 1.085-4.784 2.745-6.613 4.85-0.365 0.422-0.626 1.085-0.626 1.641-0.038 8.325-0.029 16.649-0.029 24.97v1.356z"></path>
<path fill="#212842" d="M335.697 231.751v6.571c0.55-0.531 0.896-0.873 1.247-1.209 5.5-5.296 11.861-7.604 19.428-5.405 4.163 1.214 7.291 4.916 7.396 9.401 0.199 8.51 0.057 17.024 0.057 25.619h-5.623c0-0.512 0-0.972 0-1.437-0.014-7.571 0.086-15.147-0.080-22.713-0.090-4.030-1.892-7.254-5.746-9.017-2.385-1.095-4.831-0.896-7.272-0.232-3.565 0.967-6.481 2.992-8.969 5.655-0.317 0.341-0.445 0.982-0.445 1.484-0.048 8.32-0.062 16.64-0.080 24.964 0 0.394 0 0.782 0 1.28h-5.68v-34.953h5.769z"></path>
<path fill="#212842" d="M290.276 239.218c1.949-2.399 3.627-4.589 5.462-6.642 0.493-0.554 1.413-0.815 2.185-1.024 4.641-1.232 9.188-0.882 13.654 0.873 3.181 1.247 6.173 2.759 8.429 5.428 1.901 2.252 2.835 4.835 2.854 7.794 0.033 4.726 0.071 9.458 0.26 14.185 0.086 2.077 0.526 4.158 2.053 5.774 0.394 0.417 0.882 0.749 1.418 1.2-2.361-0.052-4.694-0.033-6.874-0.981-1.811-0.787-2.437-2.465-2.512-4.238-0.128-2.986-0.043-5.988-0.048-8.979 0-0.455 0-0.915 0-1.578-1.18 1.996-2.18 3.85-3.332 5.599-2.409 3.655-5.286 6.87-9.207 8.969-4.243 2.266-8.604 2.584-12.824 0.090-3.043-1.796-5.343-5.95-2.517-10.685 2.18-3.65 5.594-5.684 9.529-6.864 3.807-1.143 7.699-2.006 11.515-3.129 1.834-0.541 3.584-1.375 5.353-2.129 1.166-0.498 1.849-1.346 1.526-2.697-0.317-1.322-0.455-2.755-1.072-3.93-1.123-2.138-3.29-2.665-5.518-2.806-3.005-0.195-5.884 0.502-8.685 1.498-3.774 1.341-7.524 2.764-11.639 4.281zM317.137 243.058c-0.678 0.388-1.252 0.73-1.83 1.048-3.433 1.873-7.244 2.56-10.966 3.56-2.385 0.64-4.822 1.223-7.073 2.204-2.157 0.939-3.997 2.475-4.048 5.172-0.109 5.561 5.897 9.23 11.055 6.794 5.096-2.404 8.553-6.447 11.26-11.226 1.308-2.309 1.892-4.803 1.603-7.552z"></path>
<path fill="#212842" d="M193.834 265.188c-7.571-4.494-10.695-13.359-9.216-20.101 1.081-4.935 3.826-8.785 8.273-11.207 5.186-2.826 10.728-3.66 16.427-1.792 6.869 2.247 10.96 7.101 12.548 14.099 1.195 5.272 0.332 10.136-2.863 14.569-2.731 3.793-6.514 5.85-10.989 6.713-4.058 0.782-8.069 0.541-11.909-1.161-0.863-0.384-1.697-0.839-2.266-1.123zM213.831 256.873c0.407-0.678 0.868-1.327 1.214-2.034 2.294-4.66 3.508-9.401 1.56-14.564-2.968-7.86-12.103-10.382-18.565-5.016-4.291 3.565-6.727 8.273-8.041 13.587-0.924 3.75-0.602 7.447 1.119 10.937 2.598 5.262 9.263 8.419 15.298 4.969 3.295-1.882 5.504-4.731 7.419-7.884z"></path>
<path fill="#212842" d="M287.592 256.114c-0.298 0.644-0.522 1.346-0.91 1.93-3.385 5.034-8.253 7.894-14.056 9.192-4.579 1.024-9.055 0.759-13.312-1.541-3.423-1.849-5.575-4.76-7.32-8.083-2.389-4.551-2.299-9.321-0.27-13.786 2.934-6.471 7.984-10.937 15.023-12.548 4.969-1.138 9.965-0.726 14.649 1.536 2.105 1.019 3.385 3.219 3.158 5.091-0.275 2.266-2.048 3.869-4.831 4.248-1.322 0.18-2.664 0.28-3.997 0.289-6.158 0.029-12.321 0.029-18.479-0.005-0.877-0.005-1.209 0.214-1.327 1.138-0.877 6.845 2.409 16.768 10.88 20.167 4.438 1.783 8.803 1.688 13.089-0.607 2.887-1.546 5.2-3.646 6.898-6.433 0.156-0.256 0.365-0.474 0.55-0.711 0.086 0.043 0.175 0.090 0.26 0.132zM256.389 241.285c2.152 0 4.233 0.052 6.31-0.010 4.295-0.132 8.59-0.289 12.88-0.512 2.418-0.124 3.508-1.897 2.428-3.85-0.74-1.337-1.83-2.351-3.224-3.015-4.366-2.077-8.675-1.583-12.842 0.498-2.873 1.436-4.707 3.826-5.556 6.888z"></path>
<path fill="#212842" d="M248.595 198.234c-0.82 3.878-0.109 7.49 1.171 11.055 2.621 7.315 9.14 11.881 16.844 11.302 5.049-0.38 9.007-3.048 11.966-7.154 0.389-0.541 0.749-1.095 1.128-1.641 0.019-0.024 0.071-0.024 0.413 0.128-0.555 0.963-1.019 1.987-1.673 2.873-4.807 6.514-14.772 10.098-22.666 8.206-7.007-1.678-11.543-7.817-12.71-13.834-1.024-5.286 0.583-10.017 3.882-14.203 3.2-4.063 7.268-6.893 12.335-7.974 4.959-1.057 9.88-0.697 14.535 1.517 2.18 1.038 3.413 3.172 3.186 5.181-0.223 1.968-1.427 3.19-3.2 3.674-1.683 0.46-3.466 0.749-5.205 0.773-6.433 0.090-12.871 0.033-19.309 0.038-0.195 0-0.388 0.029-0.702 0.057zM248.856 197.006c2.214 0 4.295 0.052 6.371-0.010 4.29-0.132 8.576-0.289 12.862-0.502 2.375-0.119 3.475-1.924 2.385-3.863-0.768-1.356-1.868-2.404-3.314-3.067-4.38-2.015-8.68-1.498-12.819 0.597-2.811 1.422-4.627 3.802-5.485 6.851z"></path>
<path fill="#212842" d="M177.124 191.469h-4.56c3.423-4.196 6.694-8.206 10.164-12.459v8.387h14.635c-1.204 1.399-2.162 2.589-3.214 3.684-0.27 0.285-0.839 0.388-1.275 0.393-2.882 0.033-5.764 0.019-8.647 0.019-0.427 0-0.853 0-1.456 0 0 1.934 0.014 3.774 0 5.613-0.052 6.106-0.057 12.217-0.19 18.323-0.109 5.191 3.783 6.381 7.026 5.821 3.921-0.673 6.845-3.039 9.42-5.893 0.763-0.844 1.436-1.778 2.105-2.697 0.175-0.246 0.195-0.607 0.285-0.915 0.185 0.175 0.37 0.356 0.55 0.531-1.673 3.063-3.821 5.727-6.666 7.837-2.508 1.858-5.252 2.916-8.419 2.921-6.035 0.010-9.724-3.575-9.751-9.643-0.029-5.718-0.005-11.434-0.005-17.152 0-1.531 0-3.063 0-4.76z"></path>
<path fill="#212842" d="M253.506 231.898c-0.986 1.29-1.597 2.546-2.602 3.28-0.905 0.663-2.214 0.873-3.375 1.066-2.598 0.427-5.267 0.526-7.813 1.143-1.456 0.351-2.873 1.285-4.053 2.262-1.688 1.399-2.256 3.347-2.219 5.589 0.119 6.466 0.1 12.938 0.142 19.404 0 0.668 0.081 1.332 0.128 2.086h-6.020v-34.972h5.703v9.51c1.849-3.698 4.532-6.481 8.202-8.258 3.745-1.811 7.694-1.408 11.904-1.109z"></path>
<path fill="#212842" d="M246.874 321.257c-2.389-0.076-4.352-0.38-6.22-1.308-1.953-0.972-2.935-2.608-3.433-4.793-1.821 2.3-3.779 4.158-6.329 5.281-6.761 2.982-15.076 1.93-19.565-4.115-2.309-3.105-3.964-6.514-4.129-10.467-0.431-10.231 7.030-18.224 15.18-20.329 3.887-1.005 7.671-0.322 11.359 1.034 1.175 0.432 2.294 1.024 3.76 1.683 0-1.247 0-2.361 0-3.475 0.019-4.494 0.057-8.993 0.048-13.488 0-0.962 0.223-1.731 0.982-2.394 1.451-1.271 2.835-2.617 4.547-4.214v1.692c0 14.435-0.019 28.876 0.024 43.312 0.005 2.115 0.227 4.243 0.507 6.343 0.28 2.062 1.043 3.94 3.271 5.234zM212.143 301.985c0.137 4.613 1.882 9.401 6.035 13.303 4.726 4.442 13.174 5.509 18.048-0.242 0.617-0.73 1.029-1.441 1.034-2.404 0.042-5.717 0.109-11.435 0.142-17.156 0-0.398-0.114-0.906-0.37-1.185-2.882-3.148-6.262-5.551-10.529-6.372-4.21-0.81-7.903 0.090-10.951 3.38-2.593 2.802-3.428 6.101-3.413 10.676z"></path>
<path fill="#212842" d="M251.928 293.366c1.034-1.266 2.262-2.413 3.053-3.812 1.815-3.204 4.774-4.010 8.064-4.21 6.243-0.38 11.828 1.474 16.683 5.338 2.977 2.37 4.518 5.537 4.503 9.453-0.014 4.651 0.071 9.306 0.256 13.952 0.052 1.389 0.38 2.849 0.929 4.12 0.498 1.156 1.474 2.105 2.304 3.228-1.953-0.289-4.115-0.403-6.149-0.967-2.243-0.621-2.949-2.603-3.024-4.726-0.090-2.64-0.029-5.286-0.033-7.926 0-0.692 0-1.385 0-2.346-1.010 1.75-1.858 3.276-2.764 4.774-2.124 3.513-4.76 6.589-8.168 8.894-4.248 2.868-8.841 3.755-13.62 1.437-4.551-2.209-5.798-7.073-3.143-11.354 2.067-3.332 5.196-5.248 8.78-6.409 3.181-1.029 6.495-1.64 9.695-2.612 2.589-0.787 5.111-1.806 7.637-2.788 1.455-0.564 1.887-1.668 1.678-3.228-0.564-4.291-2.702-6.211-7.069-6.3-3.844-0.080-7.363 1.175-10.88 2.47-2.868 1.053-5.727 2.124-8.59 3.19-0.048-0.057-0.1-0.118-0.147-0.175zM278.557 297.472c-2.589 1.788-5.409 2.721-8.301 3.508-3.76 1.024-7.599 1.858-11.236 3.219-3.489 1.303-5.001 3.887-4.276 6.921 1.175 4.93 6.334 7.348 10.918 5.191 3.485-1.635 6.215-4.129 8.548-7.097 2.669-3.394 4.769-7.040 4.348-11.748z"></path>
<path fill="#212842" d="M317.909 334.103v-7.391c2.337 0.247 4.637 0.659 6.935 0.692 3.532 0.048 6.637-1.166 9.046-3.868 0.156-0.175 0.327-0.341 0.483-0.517 0.991-1.091 0.972-2.11 0.233-3.447-6.012-10.875-11.937-21.803-17.892-32.711-0.090-0.166-0.151-0.346-0.308-0.707 2.247 0 4.356-0.033 6.466 0.038 0.294 0.010 0.654 0.502 0.839 0.853 2.764 5.168 5.509 10.344 8.253 15.521 2.048 3.854 4.091 7.713 6.144 11.567 0.071 0.132 0.185 0.237 0.384 0.488 0.531-1.1 1.038-2.1 1.507-3.12 3.005-6.538 6.012-13.075 9.007-19.613 0.74-1.607 1.455-3.228 2.2-4.831 0.469-1.014 0.502-1.014 1.839-0.721-1.024 2.228-2.005 4.447-3.058 6.632-3.693 7.68-7.296 15.408-11.159 23.002-2.238 4.394-4.755 8.666-7.433 12.81-2.115 3.276-5.584 4.575-9.349 5.039-1.322 0.161-2.659 0.19-4.144 0.284z"></path>
<path fill="#212842" d="M311.974 264.808c0 3.167-0.005 6.192 0 9.216 0.024 10.961 0.005 21.921 0.114 32.877 0.033 3.139 0.332 6.286 0.721 9.401 0.242 1.934 1.010 3.74 2.882 4.873-2.432-0.033-4.93 0.128-7.092-1.18-0.787-0.474-1.389-1.507-1.712-2.418-0.375-1.048-0.464-2.238-0.469-3.366-0.029-14.355-0.010-28.705-0.043-43.060 0-1.057 0.322-1.764 1.119-2.423 1.517-1.247 2.958-2.584 4.476-3.925z"></path>
<path fill="#212842" d="M298.202 321.219h-5.793c0-5.878 0-11.7 0-17.526s0-11.577 0-17.46h5.793v34.986z"></path>
<path fill="#212842" d="M295.447 272.024c1.981-0.010 3.651 1.654 3.683 3.664 0.038 2.015-1.673 3.683-3.774 3.679-1.972 0-3.56-1.598-3.579-3.594-0.024-2.124 1.565-3.74 3.67-3.75z"></path>
</svg>
